<svg width="200" height="200" viewBox="0 0 200 200" fill="none" xmlns="http://www.w3.org/2000/svg">
  <defs>
    <linearGradient id="artistGrad1" x1="0%" y1="0%" x2="100%" y2="100%">
      <stop offset="0%" style="stop-color:#8b5cf6;stop-opacity:1" />
      <stop offset="100%" style="stop-color:#ec4899;stop-opacity:1" />
    </linearGradient>
    <linearGradient id="artistGrad2" x1="0%" y1="0%" x2="100%" y2="100%">
      <stop offset="0%" style="stop-color:#ec4899;stop-opacity:1" />
      <stop offset="100%" style="stop-color:#000000;stop-opacity:1" />
    </linearGradient>
    <linearGradient id="artistGrad3" x1="0%" y1="0%" x2="100%" y2="100%">
      <stop offset="0%" style="stop-color:#3b82f6;stop-opacity:1" />
      <stop offset="100%" style="stop-color:#8b5cf6;stop-opacity:1" />
    </linearGradient>
    <linearGradient id="artistGrad4" x1="0%" y1="0%" x2="100%" y2="100%">
      <stop offset="0%" style="stop-color:#06b6d4;stop-opacity:1" />
      <stop offset="100%" style="stop-color:#8b5cf6;stop-opacity:1" />
    </linearGradient>
  </defs>
  
  <!-- Background circle -->
  <circle cx="100" cy="100" r="90" fill="url(#artistGrad1)" opacity="0.2"/>
  
  <!-- Microphone icon -->
  <rect x="85" y="60" width="30" height="60" rx="15" fill="url(#artistGrad1)"/>
  <rect x="90" y="50" width="20" height="15" rx="10" fill="url(#artistGrad1)"/>
  <rect x="95" y="40" width="10" height="20" rx="5" fill="url(#artistGrad1)"/>
  
  <!-- Musical notes around -->
  <circle cx="50" cy="50" r="4" fill="url(#artistGrad2)"/>
  <rect x="48" y="50" width="4" height="20" fill="url(#artistGrad2)"/>
  
  <circle cx="150" cy="60" r="3" fill="url(#artistGrad3)"/>
  <rect x="148" y="60" width="3" height="15" fill="url(#artistGrad3)"/>
  
  <circle cx="60" cy="150" r="3" fill="url(#artistGrad4)"/>
  <rect x="58" y="150" width="3" height="15" fill="url(#artistGrad4)"/>
  
  <!-- Sparkles -->
  <path d="M140 40 L145 50 L155 50 L147 57 L150 67 L140 60 L130 67 L133 57 L125 50 L135 50 Z" fill="url(#artistGrad1)" opacity="0.8"/>
  <path d="M40 120 L42 125 L47 125 L43 128 L45 133 L40 130 L35 133 L37 128 L33 125 L38 125 Z" fill="url(#artistGrad2)" opacity="0.8"/>
</svg>
